<?xml version="1.0" encoding="UTF-8"?>
<!DOCTYPE svg PUBLIC "-//W3C//DTD SVG 1.1//EN" "http://www.w3.org/Graphics/SVG/1.1/DTD/svg11.dtd">
<!-- Creator: CorelDRAW X7 -->
<svg xmlns="http://www.w3.org/2000/svg" xml:space="preserve" width="352.778mm" height="116.064mm" version="1.1" style="shape-rendering:geometricPrecision; text-rendering:geometricPrecision; image-rendering:optimizeQuality; fill-rule:evenodd; clip-rule:evenodd"
viewBox="0 0 35278 11606"
 xmlns:xlink="http://www.w3.org/1999/xlink">
 <defs>
  <style type="text/css">
   <![CDATA[
    .fil6 {fill:#FEFEFE}
    .fil0 {fill:#00AAFF}
    .fil1 {fill:#FF006F}
    .fil2 {fill:white}
    .fil3 {fill:#00AAFF;fill-rule:nonzero}
    .fil4 {fill:#FF006F;fill-rule:nonzero}
    .fil5 {fill:white;fill-rule:nonzero}
   ]]>
  </style>
 </defs>
 <g id="Layer_x0020_1">
  <metadata id="CorelCorpID_0Corel-Layer"/>
  <g id="_2213004929952">
   <path className="fil0" d="M355 1644c148,-672 607,-912 723,-988 114,-75 863,-408 1326,-213 -464,-357 -1188,-146 -1474,33 -273,170 -589,601 -575,1168zm1036 -1618c911,-165 1646,491 1775,1236 161,923 -490,1651 -1236,1784 -924,165 -1649,-485 -1787,-1233 -174,-940 489,-1650 1248,-1787z"/>
   <path className="fil1" d="M5024 1847c146,-668 604,-907 719,-983 114,-75 859,-407 1320,-213 -462,-355 -1183,-145 -1468,33 -271,170 -586,598 -571,1163zm1031 -1611c906,-164 1638,490 1767,1231 159,918 -488,1643 -1231,1776 -919,164 -1642,-483 -1779,-1228 -173,-935 487,-1642 1243,-1779z"/>
   <polygon className="fil2" points="32703,10778 34512,10778 34512,2900 35278,3221 33641,1427 31937,3226 32735,2901 "/>
   <path className="fil3" d="M0 3795l1290 0c860,0 1442,33 1746,99 305,67 553,237 745,510 192,272 288,708 288,1305 0,545 -68,911 -204,1099 -135,188 -402,300 -801,337 361,90 605,210 728,360 125,149 201,288 231,414 31,125 46,471 46,1037l0 1851 -1693 0 0 -2333c0,-375 -30,-607 -89,-697 -57,-90 -211,-134 -461,-134l0 3164 -1826 0 0 -7012zm1826 1197l0 1560c204,0 346,-28 427,-84 81,-56 123,-239 123,-548l0 -386c0,-223 -40,-369 -118,-438 -79,-70 -224,-104 -432,-104z"/>
   <path className="fil4" d="M4774 3795l1836 0c497,0 878,39 1145,117 266,78 467,191 601,337 135,148 225,326 274,535 47,210 71,533 71,972l0 610c0,446 -46,773 -139,977 -92,205 -262,363 -507,472 -247,110 -569,164 -966,164l-489 0 0 2828 -1826 0 0 -7012zm1826 1197l0 1786c51,3 96,5 133,5 167,0 282,-42 347,-124 63,-82 96,-253 96,-513l0 -578c0,-239 -37,-396 -112,-468 -74,-72 -229,-108 -464,-108z"/>
   <path className="fil5" d="M13478 6854l-1826 0 0 -1218c0,-354 -19,-574 -57,-663 -39,-87 -124,-132 -256,-132 -148,0 -242,54 -282,160 -40,108 -61,338 -61,693l0 3253c0,342 21,563 61,668 40,103 130,155 269,155 134,0 223,-52 264,-157 42,-103 62,-348 62,-734l0 -882 1826 0 0 273c0,727 -51,1243 -153,1546 -102,304 -330,570 -680,799 -351,229 -783,343 -1297,343 -533,0 -974,-96 -1321,-290 -345,-193 -576,-461 -688,-803 -113,-343 -169,-857 -169,-1544l0 -2048c0,-505 18,-883 52,-1136 36,-253 138,-497 310,-730 172,-233 410,-418 714,-552 304,-135 654,-201 1050,-201 537,0 980,103 1330,311 349,207 578,466 689,776 109,310 163,792 163,1446l0 667zm2161 434l-1640 0 0 -386c0,-444 51,-787 153,-1029 102,-241 309,-454 618,-639 309,-184 709,-277 1204,-277 591,0 1037,105 1337,314 300,209 480,466 541,770 60,304 91,932 91,1882l0 2884 -1702 0 0 -512c-106,206 -245,360 -413,463 -169,104 -370,156 -605,156 -306,0 -586,-86 -842,-257 -255,-173 -382,-549 -382,-1129l0 -473c0,-430 67,-722 204,-879 135,-157 472,-338 1010,-545 575,-226 882,-377 923,-455 40,-79 61,-237 61,-477 0,-300 -22,-495 -68,-587 -44,-90 -120,-136 -224,-136 -120,0 -194,38 -222,115 -30,76 -44,275 -44,596l0 601zm558 787c-282,206 -446,377 -491,516 -45,139 -67,337 -67,597 0,298 19,489 59,576 38,87 116,130 233,130 111,0 182,-34 216,-102 34,-68 50,-245 50,-535l0 -1182zm4125 -3012l-31 508c156,-206 328,-360 515,-462 188,-102 393,-152 615,-152 272,0 507,72 705,218 196,147 320,315 369,506 49,190 74,514 74,970l0 2422c0,523 -31,894 -93,1115 -62,220 -189,398 -381,529 -192,132 -424,197 -696,197 -216,0 -417,-51 -601,-153 -185,-101 -354,-252 -507,-453l0 1315 -1747 0 0 -6560 1778 0zm501 1671c0,-356 -14,-570 -40,-646 -25,-75 -98,-112 -217,-112 -117,0 -191,43 -225,130 -34,86 -50,296 -50,628l0 2382c0,345 18,562 52,648 35,87 110,130 227,130 114,0 183,-40 211,-119 28,-79 42,-272 42,-578l0 -2463zm4122 -2939l0 914 -1800 0 0 -914 1800 0zm0 1268l0 5744 -1800 0 0 -5744 1800 0zm2464 -762l0 904 487 0 0 913 -487 0 0 3071c0,377 20,588 60,631 40,43 206,65 498,65l0 922 -707 0c-399,0 -684,-16 -856,-50 -170,-32 -320,-109 -450,-229 -130,-120 -212,-256 -244,-411 -31,-153 -48,-515 -48,-1086l0 -2913 -372 0 0 -913 372 0 0 -904 1747 0zm2426 2987l-1640 0 0 -386c0,-444 51,-787 153,-1029 102,-241 309,-454 618,-639 309,-184 709,-277 1204,-277 591,0 1037,105 1337,314 300,209 480,466 541,770 60,304 91,932 91,1882l0 2884 -1702 0 0 -512c-106,206 -245,360 -413,463 -169,104 -370,156 -604,156 -306,0 -587,-86 -843,-257 -255,-173 -382,-549 -382,-1129l0 -473c0,-430 68,-722 204,-879 136,-157 472,-338 1010,-545 575,-226 882,-377 924,-455 40,-79 60,-237 60,-477 0,-300 -22,-495 -68,-587 -44,-90 -120,-136 -224,-136 -120,0 -194,38 -222,115 -30,76 -44,275 -44,596l0 601zm558 787c-282,206 -446,377 -490,516 -46,139 -68,337 -68,597 0,298 19,489 59,576 38,87 117,130 233,130 111,0 182,-34 216,-102 34,-68 50,-245 50,-535l0 -1182z"/>
   <polygon className="fil6" points="1514,10885 2652,10875 2609,5984 3045,5915 2037,4452 1080,5918 1501,5930 "/>
   <polygon className="fil6" points="6600,8015 7720,7973 7708,5710 8144,5641 7136,4178 6179,5644 6600,5655 "/>
  </g>
 </g>
</svg>
