<?xml version="1.0" encoding="UTF-8"?>
<!DOCTYPE svg PUBLIC "-//W3C//DTD SVG 1.1//EN" "http://www.w3.org/Graphics/SVG/1.1/DTD/svg11.dtd">
<!-- Creator: CorelDRAW X7 -->
<svg xmlns="http://www.w3.org/2000/svg" xml:space="preserve" width="490.714mm" height="94.5444mm" version="1.1" style="shape-rendering:geometricPrecision; text-rendering:geometricPrecision; image-rendering:optimizeQuality; fill-rule:evenodd; clip-rule:evenodd"
viewBox="0 0 49071 9454"
 xmlns:xlink="http://www.w3.org/1999/xlink">
 <defs>
  <style type="text/css">
   <![CDATA[
    .fil0 {fill:#FFA100}
    .fil1 {fill:white}
   ]]>
  </style>
 </defs>
 <g id="Layer_x0020_1">
  <metadata id="CorelCorpID_0Corel-Layer"/>
  <g id="_2212788475824">
   <path class="fil0" d="M0 8685c1929,0 5813,454 5813,454 55,-319 17,-540 22,-832l-5835 378zm0 -8196c1929,0 5825,449 5825,449 0,-314 46,-610 -12,-896l-5813 447zm0 1066c1929,0 5825,448 5825,448 0,-313 5,-534 10,-826l-5835 378zm0 1001c1929,0 5825,449 5825,449 0,-313 5,-534 10,-827l-5835 378zm0 1029c1929,0 5825,449 5825,449 0,-313 5,-534 10,-827l-5835 378zm0 1020c1929,0 5825,449 5825,449 0,-314 5,-534 10,-827l-5835 378zm0 983c1929,0 5825,449 5825,449 0,-313 5,-534 10,-827l-5835 378zm0 1057c1929,0 5825,448 5825,448 0,-313 5,-534 10,-826l-5835 378zm0 1011c1929,0 5825,448 5825,448 0,-313 5,-534 10,-826l-5835 378z"/>
   <path class="fil0" d="M22221 5854c0,-514 64,-1075 285,-1442 482,-803 1674,-791 2188,-276 171,171 388,546 388,750l0 1811c0,149 -185,483 -283,601l-142 153c-887,852 -2436,319 -2436,-1597zm1203 3454l-336 0 -26 0c-808,0 -1596,-578 -1936,-1052 -953,-1334 -980,-3729 -11,-5026 368,-492 1069,-998 1905,-998 1515,0 1730,684 2062,927l0 -3159 4417 0c405,0 781,158 1053,294 1449,727 1869,2596 1244,3985 -54,120 -175,319 -252,421 -486,643 -1254,1112 -2213,1112l-2314 0 0 3327 -1935 0 0 -631c-168,123 -123,248 -632,546 -365,213 -666,249 -1026,254zm5192 -5054l-1599 0 0 -2696c778,0 2226,-90 2792,238 757,439 1151,2458 -1193,2458z"/>
   <path class="fil0" d="M10020 4043l-2398 0 0 -2400 2356 0c1040,0 1389,453 1389,1305 0,745 -587,1095 -1347,1095zm-4207 5096l1809 0 0 -3537 2230 0c685,0 1178,281 1178,968l0 2569 1893 0 0 -2737c0,-417 -99,-813 -276,-1072 -313,-458 -640,-386 -775,-571 189,-16 390,-177 518,-281 1396,-1128 1104,-4436 -2243,-4436l-4334 0 0 9097z"/>
   <path class="fil0" d="M43551 590l0 6064c0,1542 1054,2654 2482,2654l544 0c348,-8 669,-49 1042,-224 266,-125 337,-158 550,-333 227,-186 206,-140 431,-453 237,-329 462,-897 462,-1349l0 -2316c-1864,0 -1692,-126 -1684,377l3 1604c2,1526 -2021,1537 -2021,-2l0 -2990 3702 0 0 -1306 -3702 0 0 -1726c0,-97 -29,-127 -126,-127l-1557 0c-97,0 -126,30 -126,127z"/>
   <path class="fil0" d="M16710 3664l84 0c772,0 1304,645 1304,1432l-2692 0c0,-757 550,-1432 1304,-1432zm442 5644l-757 0c-416,-34 -813,-126 -1130,-280 -1483,-721 -1711,-1967 -1711,-3637 0,-1036 390,-1833 1105,-2474 1091,-979 3609,-973 4551,392 568,824 739,1719 739,2924l-4628 0c141,1695 1514,1930 2314,1432 289,-181 299,-337 379,-505l1851 0c-62,130 -114,311 -173,458 -122,303 -282,489 -464,715 -255,318 -659,611 -1051,759 -299,113 -655,186 -1025,216z"/>
   <path class="fil0" d="M40816 3075l0 -759 -1682 0 0 6823 1809 0 0 -3664c0,-1052 650,-1516 1683,-1516 233,0 249,42 462,42l0 -1853c-857,0 -1516,6 -2109,752 -66,84 -75,116 -163,175z"/>
   <path class="fil0" d="M35736 7897c-5,-61 -26,-135 -39,-196 -62,-271 -147,-739 -20,-997 144,-292 561,-120 788,-29l310 154c77,45 155,91 228,140 -149,283 -484,599 -763,739 -126,64 -363,189 -504,189zm-2209 -928c180,-121 503,-294 717,-365 194,-65 476,-130 601,85 145,251 37,816 -31,1104 -6,25 -18,76 -20,104 -227,0 -672,-280 -823,-407 -172,-145 -339,-322 -444,-521zm1355 -1039c0,-47 18,-115 32,-151 33,-83 109,-158 189,-195 294,-138 653,144 513,498 -10,24 -21,45 -34,62l-67 74c-11,8 -17,15 -28,23 -109,81 -249,90 -374,40l-86 -54c-14,-11 -16,-10 -29,-22l-44 -53c-9,-13 -29,-45 -35,-60 -16,-33 -37,-112 -37,-162zm1178 -361c0,-181 178,-423 301,-561 50,-57 159,-174 212,-215 48,-38 175,-184 239,-189 7,26 26,48 42,69 285,379 437,743 437,1265l0 132c-42,0 -52,-6 -96,-7 -168,-2 -500,-67 -650,-109 -182,-51 -485,-168 -485,-385zm-2821 501c-13,-222 -10,-338 42,-563 70,-309 202,-594 396,-841 13,-16 43,-53 56,-62 53,12 300,244 339,295l236 286c17,23 30,43 44,67 121,203 209,413 -54,573 -213,129 -595,213 -853,230 -69,5 -132,15 -206,15zm1253 -2018c223,-52 378,-148 677,-148 241,0 312,-8 553,52 110,27 210,71 316,96 -10,123 -170,438 -245,579 -86,162 -321,540 -528,540 -275,0 -544,-577 -641,-773l-73 -163c-21,-53 -52,-122 -59,-183zm-1643 1834c0,418 66,741 216,1051 63,131 128,257 214,375 22,31 40,57 62,85l206 237c198,198 439,366 692,487 69,34 136,57 208,86 278,110 574,140 884,140 355,0 710,-110 955,-224 73,-33 261,-136 329,-187 17,-12 27,-18 44,-30l166 -128c17,-17 23,-19 40,-33 15,-13 23,-24 37,-37l147 -148c257,-277 363,-490 497,-829 101,-253 135,-572 135,-860 0,-196 -31,-356 -66,-516 -41,-192 -153,-463 -253,-631 -79,-131 -92,-149 -178,-264 -21,-28 -42,-58 -65,-82l-177 -192c-171,-142 -253,-228 -462,-348 -116,-66 -272,-142 -402,-187 -441,-154 -931,-184 -1386,-69 -81,20 -149,40 -227,67l-211 84c-112,47 -276,146 -374,215 -154,109 -273,209 -396,348 -120,137 -221,256 -313,424 -197,356 -322,742 -322,1166z"/>
   <path class="fil1" d="M37816 6211c-153,1327 -1311,2439 -2815,2290 -1325,-131 -2459,-1323 -2301,-2828 139,-1320 1327,-2445 2821,-2289 1389,144 2459,1410 2295,2827zm659 -610c32,-77 187,-102 263,-120 -12,-129 -94,-563 -152,-639 -108,37 -158,100 -227,127l-33 -40c44,-77 155,-104 236,-168 -52,-217 -213,-428 -259,-587 -134,37 -148,147 -221,171l-31 -27c15,-91 127,-152 191,-213 -25,-82 -302,-485 -408,-524 -25,43 -53,72 -81,119 -48,83 -16,102 -106,76 -7,-91 121,-191 150,-274 -128,-77 -300,-311 -493,-408 -34,35 -54,80 -71,130 -36,105 6,105 -82,103 -43,-74 -10,-30 -10,-44 0,-9 4,-27 6,-35 6,-23 16,-46 26,-69 19,-46 50,-89 56,-143 -85,-64 -462,-293 -566,-305 -39,76 -24,189 -62,259l-58 -2c2,-137 33,-193 45,-303 -117,-30 -526,-201 -632,-172l-6 254c0,-2 -2,8 -5,12 -74,0 -31,29 -56,-36 -29,-73 -8,-185 -3,-258 -224,-33 -418,-57 -654,-54 -4,57 5,101 21,153 29,95 42,90 8,131 -57,-5 -26,29 -60,-49 -32,-71 -32,-150 -50,-225 -119,-23 -545,33 -653,75 35,162 147,205 73,276 -94,-32 -101,-176 -152,-257 -134,18 -532,157 -619,217 94,161 174,173 135,257 -103,-30 -132,-127 -203,-221 -132,25 -459,260 -562,327 33,74 212,169 182,208 -56,74 -216,-122 -246,-149 -93,47 -442,362 -477,461 43,18 71,44 118,66 80,38 97,9 102,83 -52,43 -101,-2 -155,-31 -46,-25 -84,-54 -123,-72 -67,76 -345,433 -369,548 49,13 87,33 140,45 92,21 109,-11 107,75 -80,41 -212,-44 -290,-56 -62,87 -233,486 -248,611l262 25 2 46c-87,39 -200,-3 -290,0 -54,125 -116,491 -120,640 135,2 229,-43 268,-14 4,72 -40,66 -117,77 -55,9 -110,5 -161,21 -12,227 -8,419 14,644 162,0 214,-127 273,-40 -34,81 -184,90 -258,122 1,118 98,540 146,634 105,-22 156,-97 227,-125l33 41c-44,78 -158,98 -231,168 36,133 204,493 277,580 109,-44 134,-144 198,-164l32 26c-9,52 -43,81 -81,118l-104 96c52,114 326,470 397,512 119,-109 78,-216 191,-183 7,85 -95,179 -135,236 20,60 65,88 108,126 41,38 72,69 119,110 45,40 205,182 267,192 25,-39 45,-79 59,-124 27,-81 2,-93 78,-92l8 22c15,89 3,-67 3,22 -1,84 -67,154 -87,235 181,81 362,248 565,303 56,-78 27,-181 61,-244l46 0c40,80 -23,201 -24,283 105,45 192,73 305,108 463,143 278,54 320,-157l9 -23c74,0 32,-28 56,35 28,69 7,168 9,237 215,43 425,54 649,57 -4,-78 -38,-139 -44,-208 -6,-74 -15,-22 15,-57 65,6 21,-24 55,37 37,66 31,150 54,219 178,24 474,-46 648,-70 -37,-162 -143,-191 -68,-263 79,27 95,140 131,206 12,22 11,19 22,32 158,-27 475,-137 604,-208 -35,-144 -171,-138 -120,-248 82,25 111,92 157,156l46 53c195,-74 372,-236 551,-322 -33,-78 -203,-159 -171,-201 31,-29 -5,-18 43,-14 30,3 70,43 93,60 42,31 67,67 110,90 120,-93 400,-329 462,-444 -86,-76 -201,-78 -206,-152 71,-58 193,60 263,92 69,-60 349,-421 369,-535 -71,-39 -244,-46 -234,-107 13,-77 200,25 295,38 51,-193 207,-391 241,-609l-258 -24 -1 -46c84,-38 202,-3 290,4 41,-209 110,-413 118,-642 -79,-7 -136,17 -215,22 -56,4 -19,15 -51,-10 -5,-72 40,-67 117,-78 56,-8 109,-3 160,-21 11,-224 2,-420 -12,-644 -58,1 -113,19 -163,41 -82,36 -71,61 -111,0z"/>
  </g>
 </g>
</svg>
