<?xml version="1.0" encoding="UTF-8"?>
<!DOCTYPE svg PUBLIC "-//W3C//DTD SVG 1.1//EN" "http://www.w3.org/Graphics/SVG/1.1/DTD/svg11.dtd">
<!-- Creator: CorelDRAW X7 -->
<svg xmlns="http://www.w3.org/2000/svg" xml:space="preserve" width="88.8998mm" height="18.8806mm" version="1.1" style="shape-rendering:geometricPrecision; text-rendering:geometricPrecision; image-rendering:optimizeQuality; fill-rule:evenodd; clip-rule:evenodd"
viewBox="0 0 8890 1888"
 xmlns:xlink="http://www.w3.org/1999/xlink">
 <defs>
  <style type="text/css">
   <![CDATA[
    .str0 {stroke:#CA00BA;stroke-width:84.66}
    .fil0 {fill:none}
    .fil1 {fill:white}
    .fil2 {fill:white;fill-rule:nonzero}
   ]]>
  </style>
 </defs>
 <g id="Layer_x0020_1">
  <metadata id="CorelCorpID_0Corel-Layer"/>
  <g id="_2420997615584">
   <path class="fil0 str0" d="M7920 112c466,0 844,377 844,843 0,466 -378,844 -844,844 -465,0 -843,-378 -843,-844 0,-466 378,-843 843,-843z"/>
   <path class="fil1" d="M8121 961l-47 50c-12,12 -31,31 -42,44 -7,9 -17,15 -24,24l-30 32c-7,8 -17,16 -24,24 -2,3 -3,4 -5,7 -3,2 -4,4 -7,6 -4,4 -7,8 -12,12l-30 31c-2,3 -2,4 -5,7l-48 49c-3,3 -3,4 -6,7l-18 18c-5,4 -7,8 -12,13l-18 18c-3,3 -3,4 -6,7 -8,8 -17,16 -24,24 -9,13 -21,19 -32,19l-5 0c-18,-1 -32,-15 -32,-37 0,-22 23,-34 35,-49l24 -25c4,-4 5,-6 9,-10 6,-7 12,-12 19,-19l131 -136c3,-4 5,-7 9,-10l19 -19c3,-4 5,-7 9,-11 7,-7 16,-15 23,-24 4,-5 11,-9 15,-15l-1256 0 0 -72 1256 0c-2,-5 -14,-15 -19,-20l-37 -39c-8,-8 -16,-16 -23,-24l-107 -112c-6,-7 -13,-13 -20,-19l-60 -64c-1,-2 -3,-3 -5,-5 -3,-3 -6,-6 -9,-9 -27,-27 -11,-65 24,-65 18,0 31,19 43,31l35 37c7,9 17,16 25,25l59 62c17,19 37,36 53,56 8,9 18,16 25,25 2,3 3,4 6,6l23 25c8,9 18,16 25,25 7,9 15,16 23,24l12 13c6,6 13,12 19,19l42 44z"/>
   <path class="fil2" d="M358 1006l20 0c57,0 96,-7 114,-20 19,-14 29,-38 29,-72 0,-37 -10,-63 -31,-78 -20,-15 -58,-22 -112,-22l-20 0 0 192zm-7 84l0 300 -102 0 0 -670 152 0c44,0 79,3 104,9 24,6 45,15 62,28 21,17 37,38 48,63 12,26 17,54 17,84 0,54 -13,96 -39,126 -25,31 -64,49 -114,55l230 305 -123 0 -222 -300 -13 0zm550 300l0 -670 374 0 0 93 -266 0 0 167 266 0 0 96 -266 0 0 216 266 0 0 98 -374 0zm767 -264l186 0 -68 -152c-4,-10 -8,-21 -13,-34 -4,-12 -8,-26 -12,-42 -4,15 -8,28 -12,41 -4,12 -8,24 -13,35l-68 152zm301 264l-76 -173 -265 0 -78 173 -114 0 324 -696 324 696 -115 0zm413 -99l92 0c50,0 88,-3 113,-10 25,-6 47,-18 66,-34 25,-21 44,-48 57,-80 12,-33 19,-70 19,-113 0,-42 -7,-80 -19,-112 -13,-32 -32,-59 -57,-81 -19,-15 -42,-27 -68,-34 -26,-6 -68,-10 -124,-10l-39 0 -40 0 0 474zm-108 99l0 -670 146 0c96,0 163,5 202,14 39,10 73,26 102,49 39,29 68,67 88,114 20,46 30,99 30,158 0,60 -10,112 -30,158 -20,46 -49,84 -88,114 -29,22 -62,39 -100,48 -37,10 -95,15 -174,15l-30 0 -146 0zm1521 -331c-1,-5 -3,-19 -6,-43 -2,-19 -4,-36 -6,-48 -3,15 -7,30 -12,45 -5,16 -11,31 -19,47l-175 357 -175 -364c-7,-15 -14,-30 -19,-44 -5,-14 -10,-28 -14,-41 0,14 -1,28 -3,44 -2,15 -5,31 -9,48l-72 330 -100 0 158 -698 198 422c3,7 7,18 14,34 6,15 13,34 22,57 7,-19 17,-43 30,-73 4,-8 7,-14 9,-18l193 -422 162 698 -102 0 -74 -331zm963 -3c0,-34 -7,-66 -19,-96 -12,-31 -30,-58 -53,-82 -23,-23 -49,-41 -78,-54 -30,-12 -62,-19 -94,-19 -33,0 -65,6 -94,19 -30,12 -57,31 -80,54 -23,24 -41,51 -53,81 -12,31 -18,63 -18,97 0,34 6,66 18,96 12,30 30,57 53,81 23,24 50,42 79,55 30,12 61,18 95,18 32,0 63,-6 93,-18 29,-13 56,-31 79,-55 23,-24 41,-51 53,-81 12,-30 19,-62 19,-96zm113 0c0,48 -9,93 -27,135 -18,43 -43,80 -78,114 -34,33 -73,58 -116,76 -44,17 -89,26 -136,26 -49,0 -94,-9 -138,-26 -44,-18 -83,-44 -116,-76 -34,-34 -60,-71 -78,-113 -17,-42 -26,-88 -26,-136 0,-48 9,-93 26,-135 18,-43 44,-80 78,-114 34,-33 73,-59 116,-76 43,-17 89,-26 138,-26 48,0 93,9 137,26 43,17 81,43 115,76 35,34 60,72 78,115 18,42 27,87 27,134zm361 -50l19 0c58,0 96,-7 115,-20 19,-14 29,-38 29,-72 0,-37 -11,-63 -31,-78 -20,-15 -58,-22 -113,-22l-19 0 0 192zm-7 84l0 300 -102 0 0 -670 152 0c44,0 79,3 103,9 25,6 46,15 63,28 21,17 37,38 48,63 11,26 17,54 17,84 0,54 -13,96 -39,126 -26,31 -64,49 -115,55l231 305 -123 0 -223 -300 -12 0zm550 300l0 -670 373 0 0 93 -265 0 0 167 265 0 0 96 -265 0 0 216 265 0 0 98 -373 0z"/>
  </g>
 </g>
</svg>
