<svg id="Layer_1" data-name="Layer 1" xmlns="http://www.w3.org/2000/svg" viewBox="0 0 90.34 90.34"><defs><style>.cls-1{fill:#ed2024;}.cls-2{fill:#fff;}</style></defs><circle class="cls-1" cx="45.17" cy="45.17" r="45.17"/><path class="cls-2" d="M78.85,34a7.53,7.53,0,0,0-5.32-5.32C68.83,27.46,50,27.46,50,27.46s-18.83,0-23.53,1.26A7.53,7.53,0,0,0,21.15,34c-1.26,4.7-1.26,14.5-1.26,14.5s0,9.8,1.26,14.49a7.56,7.56,0,0,0,5.32,5.33C31.17,69.62,50,69.62,50,69.62s18.83,0,23.53-1.26A7.56,7.56,0,0,0,78.85,63c1.26-4.69,1.26-14.49,1.26-14.49S80.11,38.74,78.85,34ZM44,57.57V39.5l15.64,9Z" transform="translate(-4.83 -3.37)"/></svg>